<svg xmlns="http://www.w3.org/2000/svg" viewBox="0 0 100 100" fill="none" stroke-linecap="round" stroke-linejoin="round">
  <!-- Golden rays -->
  <line x1="50" y1="3" x2="50" y2="8" stroke="#F59E0B" stroke-width="3.5"/>
  <line x1="63" y1="6" x2="67" y2="2" stroke="#F59E0B" stroke-width="3.5"/>
  <line x1="37" y1="6" x2="33" y2="2" stroke="#F59E0B" stroke-width="3.5"/>
  <!-- Lightbulb body -->
  <path d="M36 30 C36 20 42 13 50 13 C58 13 64 20 64 30 C64 36 61 40 58 43 L42 43 C39 40 36 36 36 30 Z" stroke="#1B3A5C" stroke-width="3.2"/>
  <!-- Collar -->
  <line x1="42" y1="43" x2="58" y2="43" stroke="#1B3A5C" stroke-width="3.2"/>
  <line x1="44" y1="48" x2="56" y2="48" stroke="#1B3A5C" stroke-width="3.2"/>
  <line x1="47" y1="53" x2="53" y2="53" stroke="#1B3A5C" stroke-width="3.2"/>
  <!-- Book left page -->
  <path d="M50 57 C44 54 28 53 4 58 L4 86 C28 81 44 82 50 85 Z" stroke="#1B3A5C" stroke-width="3.2"/>
  <!-- Book right page -->
  <path d="M50 57 C56 54 72 53 96 58 L96 86 C72 81 56 82 50 85 Z" stroke="#1B3A5C" stroke-width="3.2"/>
</svg>
